<?xml version="1.0" encoding="UTF-8" standalone="no"?>
<svg
   viewBox="-64 -96 704 704"
   version="1.1"
   id="svg4"
   xmlns="http://www.w3.org/2000/svg"
   xmlns:svg="http://www.w3.org/2000/svg">
  <defs
     id="defs8">
    <rect
       x="-1.1384169"
       y="64.074108"
       width="383.3133"
       height="382.13829"
       id="rect278" />
    <rect
       x="73.699361"
       y="152.41458"
       width="289.96467"
       height="280.23662"
       id="rect168" />
  </defs>
  <!-- Font Awesome Pro 5.15.4 by @fontawesome - https://fontawesome.com License - https://fontawesome.com/license (Commercial License) -->
  <path
     id="path2"
     fill="white"
     d="M 47.800781 64 C 21.400808 64 -9.4738937e-15 85.400808 0 111.80078 L 0 400.19922 C 0 426.59919 21.400808 448 47.800781 448 L 336.19922 448 C 362.59919 448 384 426.59919 384 400.19922 L 384 111.80078 C 384 85.400808 362.59919 64 336.19922 64 L 47.800781 64 z M 544.60156 95.978516 C 538.19789 95.829102 531.59023 97.592973 525.59961 101.69922 L 416 177.30078 L 416 334.69922 L 525.59961 410.19922 C 546.79959 424.7992 576 409.90037 576 384.40039 L 576 127.5 C 576 109.24377 560.96652 96.360351 544.60156 95.978516 z M 119.93945 158.17773 L 178.60547 158.17773 C 197.80547 158.17773 214.42821 161.73459 228.47266 168.8457 C 242.5171 175.95682 253.36141 186.44583 261.00586 200.3125 C 268.65031 214.00139 272.47266 231.06727 272.47266 251.51172 C 272.47266 283.6895 263.67227 307.95694 246.07227 324.3125 C 228.65004 340.49028 204.29476 348.57813 173.00586 348.57812 L 119.93945 348.57812 L 119.93945 158.17773 z M 143.93945 178.71094 L 143.93945 328.04492 L 169.80469 328.04492 C 221.36025 328.04492 247.13867 302.8014 247.13867 252.3125 C 247.13867 226.89027 240.8273 208.31146 228.20508 196.57812 C 215.76063 184.66701 198.07201 178.71094 175.13867 178.71094 L 143.93945 178.71094 z " />
</svg>
