<?xml version="1.0" encoding="UTF-8" standalone="no"?>
<svg
   viewBox="-64 -96 704 704"
   version="1.1"
   id="svg4"
   xmlns="http://www.w3.org/2000/svg"
   xmlns:svg="http://www.w3.org/2000/svg">
  <defs
     id="defs8">
    <rect
       x="-1.1384169"
       y="64.074108"
       width="383.3133"
       height="382.13829"
       id="rect278" />
    <rect
       x="73.699361"
       y="152.41458"
       width="289.96467"
       height="280.23662"
       id="rect168" />
  </defs>
  <!-- Font Awesome Pro 5.15.4 by @fontawesome - https://fontawesome.com License - https://fontawesome.com/license (Commercial License) -->
  <path
     id="path2"
     fill="white"
     d="M 47.800781 64 C 21.400808 64 -9.4738937e-15 85.400808 0 111.80078 L 0 400.19922 C 0 426.59919 21.400808 448 47.800781 448 L 336.19922 448 C 362.59919 448 384 426.59919 384 400.19922 L 384 111.80078 C 384 85.400808 362.59919 64 336.19922 64 L 47.800781 64 z M 544.60156 95.978516 C 538.19789 95.829102 531.59023 97.592973 525.59961 101.69922 L 416 177.30078 L 416 334.69922 L 525.59961 410.19922 C 546.79959 424.7992 576 409.90037 576 384.40039 L 576 127.5 C 576 109.24377 560.96652 96.360351 544.60156 95.978516 z M 174.36328 157.84961 L 195.96289 157.84961 L 270.09766 349.05078 L 245.29688 349.05078 L 222.36328 290.11719 L 146.89648 290.11719 L 124.23047 349.05078 L 99.962891 349.05078 L 174.36328 157.84961 z M 184.76367 182.65039 C 183.51923 188.1615 182.09609 193.58268 180.49609 198.91602 C 178.89609 204.07157 177.56276 208.16137 176.49609 211.18359 L 154.89648 268.7832 L 215.16406 268.7832 L 193.83008 211.18359 C 193.29674 209.76137 192.40851 207.18255 191.16406 203.44922 C 189.91962 199.71588 188.67413 195.89353 187.42969 191.98242 C 186.36302 187.89353 185.47478 184.78372 184.76367 182.65039 z " />
</svg>
